<svg id="Layer_1" data-name="Layer 1" xmlns="http://www.w3.org/2000/svg" viewBox="0 0 164.59 164.14"><defs><style>.cls-1{fill:#fbcfc9;}</style></defs><title>logo</title><path class="cls-1" d="M205.19,366.06h128.4a34.85,34.85,0,0,0,34.85-34.85V273.53a35.17,35.17,0,0,0-35.17-35.17H278.54l18.56,18.57h36.4a15.71,15.71,0,0,1,15.71,15.7v59.29a14.92,14.92,0,0,1-14.91,14.91H223.08l-19.23,19.23Z" transform="translate(-203.85 -201.91)"/><polygon class="cls-1" points="128.14 72.46 109.36 72.46 109.36 95.94 49.87 36.45 36.23 36.45 36.23 91.24 55.01 91.24 55.01 69.1 113.72 127.8 128.14 127.8 128.14 72.46"/><path class="cls-1" d="M368.44,201.91h-130a34.55,34.55,0,0,0-34.55,34.56v58.76a34.49,34.49,0,0,0,34.49,34.49h55.41l-18.06-18.06H239.32a16,16,0,0,1-16-16V236.33a16.08,16.08,0,0,1,16.08-16.08H348.09Z" transform="translate(-203.85 -201.91)"/></svg>